# xmcd
#
# Track frame offsets:
#   150
#   15216
#   28719
#   41537
#   56304
#   72603
#   88285
#   101134
#   116285
#   129559
#   144688
#   162980
#   176850
#   189597
#   204325
#   212699
#   223965
#   233667
#   245641
#   261775
#   275022
#   287595
#   300773
#   315644
#
# Disc length: 4430 seconds
#
# Revision: 0
# Processed by: cddbd v1.5.2PL0 Copyright (c) Steve Scherf et al.
# Submitted via: uFREEDB ActiveX Control 1.5
#
DISCID=63114c18
DTITLE=Cristiano Araújo - Maus Bocados
DYEAR=2013
DGENRE=Country
TTITLE0=Efeitos
TTITLE1=Mente pra Mim
TTITLE2=BaraBara
TTITLE3=Maus Bocados
TTITLE4=Caso Indefinido
TTITLE5=É Fato
TTITLE6=É só chegar e beijar
TTITLE7=Nosso Amor Já Era
TTITLE8=Hoje Eu Sou Seu Meu Bem
TTITLE9=Mandei Um Anjo
TTITLE10=Você Mudou
TTITLE11=Você vai Ficar em Mim
TTITLE12=Sabe Me Prender
TTITLE13=Empinadinha
TTITLE14=Meninas do Boteco
TTITLE15=Fafafa
TTITLE16=Mete fogo na saudade
TTITLE17=Amor no carro
TTITLE18=Me Apego
TTITLE19=Amor da Gente
TTITLE20=Seu coração ainda é meu
TTITLE21=Ta mais pra capetinha
TTITLE22=Bebendo cantando e chorando
TTITLE23=Cuida de mim todo dia
EXTD=SomLivre
EXTT0=
EXTT1=
EXTT2=
EXTT3=
EXTT4=
EXTT5=
EXTT6=
EXTT7=
EXTT8=
EXTT9=
EXTT10=
EXTT11=
EXTT12=
EXTT13=
EXTT14=
EXTT15=
EXTT16=
EXTT17=
EXTT18=
EXTT19=
EXTT20=
EXTT21=
EXTT22=
EXTT23=
PLAYORDER=
